<svg width="46" height="50" viewBox="0 0 46 50" fill="none" xmlns="http://www.w3.org/2000/svg">
<g clip-path="url(#clip0_1_73)">
<path d="M33.7906 39.9483C33.5565 39.6019 33.1126 39.5325 32.8013 39.7919C32.4886 40.0505 32.425 40.5403 32.6598 40.8851L34.922 44.2184C35.0559 44.416 35.2658 44.5312 35.4874 44.5312C35.4992 44.5312 35.5116 44.5312 35.524 44.5305C35.7588 44.5167 35.9727 44.3748 36.0935 44.152L39.4866 37.902C39.6875 37.532 39.5791 37.0522 39.2443 36.8301C38.9088 36.6073 38.4752 36.7279 38.2744 37.0979L35.4218 42.3515L33.7906 39.9483Z" fill="#141414"/>
<path d="M42.415 4.69047H31.8113V0.78125C31.8113 0.349453 31.4951 0 31.1044 0C30.7136 0 30.3974 0.349453 30.3974 0.78125V4.69047H15.5522V0.78125C15.5522 0.349453 15.236 0 14.8453 0C14.4545 0 14.1384 0.349453 14.1384 0.78125V4.69047H2.82741C1.2657 4.69047 -0.000244141 6.08953 -0.000244141 7.81547V46.875C-0.000244141 48.6009 1.2657 50 2.82741 50H42.415C43.9766 50 45.2427 48.6009 45.2427 46.875V7.81547C45.2427 6.08953 43.9766 4.69047 42.415 4.69047ZM2.82741 6.25297H14.1384V8.59375C14.1384 9.02555 14.4545 9.375 14.8453 9.375C15.236 9.375 15.5522 9.02555 15.5522 8.59375V6.25297H30.3974V8.59375C30.3974 9.02555 30.7136 9.375 31.1044 9.375C31.4951 9.375 31.8113 9.02555 31.8113 8.59375V6.25297H42.415C43.1946 6.25297 43.8288 6.95383 43.8288 7.81547V13.2812H1.41394L1.41359 13.2813V7.81547C1.41359 6.95383 2.04783 6.25297 2.82741 6.25297ZM43.8288 46.875C43.8288 47.7366 43.1946 48.4375 42.415 48.4375H2.82741C2.04783 48.4375 1.41359 47.7366 1.41359 46.875V14.8437L1.41394 14.8438H43.8288V46.875Z" fill="#141414"/>
<path d="M12.7245 18.75H7.06915V25H12.7245V18.75ZM11.3106 23.4375H8.48298V20.3125H11.3106V23.4375Z" fill="#141414"/>
<path d="M25.4489 18.75H19.7936V25H25.4489V18.75ZM24.0351 23.4375H21.2074V20.3125H24.0351V23.4375Z" fill="#141414"/>
<path d="M38.1734 18.75H32.5181V25H38.1734V18.75ZM36.7596 23.4375H33.9319V20.3125H36.7596V23.4375Z" fill="#141414"/>
<path d="M12.7245 28.125H7.06915V34.375H12.7245V28.125ZM11.3106 32.8125H8.48298V29.6875H11.3106V32.8125Z" fill="#141414"/>
<path d="M25.4489 28.125H19.7936V34.375H25.4489V28.125ZM24.0351 32.8125H21.2074V29.6875H24.0351V32.8125Z" fill="#141414"/>
<path d="M12.7245 37.5H7.06915V43.75H12.7245V37.5ZM11.3106 42.1875H8.48298V39.0625H11.3106V42.1875Z" fill="#141414"/>
<path d="M25.4489 37.5H19.7936V43.75H25.4489V37.5ZM24.0351 42.1875H21.2074V39.0625H24.0351V42.1875Z" fill="#141414"/>
<path d="M38.1734 28.125H32.5181V34.375H38.1734V28.125ZM36.7596 32.8125H33.9319V29.6875H36.7596V32.8125Z" fill="#141414"/>
</g>
<defs>
<clipPath id="clip0_1_73">
<rect width="45.2425" height="50" fill="white"/>
</clipPath>
</defs>
</svg>
