<svg width="56" height="63" viewBox="0 0 56 63" fill="none" xmlns="http://www.w3.org/2000/svg">
<g clip-path="url(#clip0_1_91)">
<path d="M54.8 17.4977L37.3037 9.90239C36.8795 9.7183 36.4046 9.96055 36.2429 10.4431C36.0813 10.9262 36.294 11.4669 36.7183 11.651L52.2006 18.372L41.4828 23.0251L28.0034 16.0759C27.5898 15.8625 27.1031 16.0716 26.916 16.5421C26.7286 17.0132 26.9123 17.5673 27.3255 17.7808L39.3194 23.9643L27.6645 29.0237L3.12838 18.372L27.6645 7.72023L33.711 10.3456C34.1344 10.5292 34.6097 10.2874 34.7718 9.80434C34.9335 9.32176 34.7207 8.78103 34.2965 8.59694L27.9574 5.84473C27.7687 5.76302 27.5602 5.76254 27.3715 5.84473L0.528924 17.4977C0.210641 17.6361 0 17.9841 0 18.372V22.645C0 23.0328 0.210641 23.3808 0.528924 23.5193L8.91109 27.1578V30.4003C8.91109 30.917 9.27876 31.3361 9.73255 31.3361C10.1868 31.3361 10.5544 30.917 10.5544 30.4003V27.8716L27.3715 35.1722C27.4661 35.213 27.5653 35.2337 27.6645 35.2337C27.7637 35.2337 27.8629 35.213 27.9574 35.1722L40.6339 29.6692V44.4771C36.6541 46.8559 32.1914 48.1306 27.6645 48.1306C21.4862 48.1306 15.4262 45.759 10.5544 41.4432V34.1431C10.5544 33.6264 10.1868 33.2073 9.73255 33.2073C9.27876 33.2073 8.91109 33.6264 8.91109 34.1431V41.8965C8.91109 42.1806 9.02422 42.4493 9.21882 42.6266C14.4325 47.3827 20.9835 50.0017 27.6645 50.0017C32.1703 50.0017 36.6161 48.8088 40.6339 46.5742V50.3613C39.3097 50.7732 38.3333 52.1541 38.3333 53.7907C38.3333 55.7508 39.7339 57.3461 41.4554 57.3461C43.1772 57.3461 44.5778 55.7508 44.5778 53.7907C44.5778 52.1541 43.6014 50.7732 42.2772 50.3613V45.586C43.6166 44.7184 44.8999 43.7312 46.1106 42.6266C46.3052 42.4493 46.4187 42.1806 46.4187 41.8965V27.1573L54.8 23.5188C55.1183 23.3808 55.329 23.0328 55.329 22.6445V18.372C55.329 17.9841 55.1183 17.6361 54.8 17.4977ZM42.9345 53.7907C42.9345 54.7189 42.2709 55.4744 41.4554 55.4744C40.6402 55.4744 39.9766 54.7189 39.9766 53.7907C39.9766 52.8621 40.6402 52.1065 41.4554 52.1065C42.2709 52.1065 42.9345 52.8621 42.9345 53.7907ZM1.64334 19.7303L26.8426 30.6699V32.9396L1.64334 21.9999V19.7303ZM28.4864 32.9396V30.6699L40.6339 25.3962V27.6663L28.4864 32.9396ZM44.775 41.4428C43.9733 42.1532 43.1388 42.8097 42.2772 43.4125V28.9554L44.775 27.8711V41.4428ZM42.2772 26.9526V24.6829L53.6856 19.7303V21.9999L42.2772 26.9526Z" fill="#141414" stroke="white" stroke-width="0.25"/>
</g>
<defs>
<clipPath id="clip0_1_91">
<rect width="55.329" height="63" fill="white"/>
</clipPath>
</defs>
</svg>
