<svg width="13" height="24" viewBox="0 0 13 24" fill="none" xmlns="http://www.w3.org/2000/svg">
<path d="M3.93567 9.22969H4.53567V8.62969V5.90643C4.53567 4.2237 5.01521 2.8997 5.80576 2.00493C6.58952 1.11783 7.72408 0.600123 9.15338 0.6C9.15355 0.6 9.15372 0.6 9.15389 0.6L11.8183 0.604717V4.04761L10.0742 4.04829C10.0741 4.04829 10.0741 4.04829 10.074 4.04829C9.35712 4.04833 8.73536 4.19898 8.33939 4.69371C7.97305 5.15142 7.92419 5.76578 7.92419 6.32115V8.62969V9.22969H8.52419H11.686L11.6848 12.9544H8.52419H7.92419V13.5544V23.4H4.53567V13.5544V12.9544H3.93567H1.25521V9.22969H3.93567ZM11.9749 4.04755H11.9746H11.9749Z" stroke="#141414" stroke-width="1.2"/>
</svg>
