<svg width="26" height="20" viewBox="0 0 26 20" fill="none" xmlns="http://www.w3.org/2000/svg">
<path d="M16.1187 9.28802C16.2373 9.35515 16.3368 9.45715 16.4062 9.58277C16.4757 9.7084 16.5125 9.85278 16.5125 10C16.5125 10.1473 16.4757 10.2916 16.4062 10.4173C16.3368 10.5429 16.2373 10.6449 16.1187 10.712L13.8566 12L11.3809 13.404C11.2708 13.4662 11.1482 13.4961 11.0247 13.4911C10.9012 13.486 10.7809 13.4461 10.6753 13.3751C10.5697 13.3041 10.4823 13.2045 10.4215 13.0856C10.3606 12.9667 10.3283 12.8326 10.3276 12.696V7.30402C10.3277 7.16709 10.3596 7.03248 10.4202 6.91306C10.4808 6.79364 10.5681 6.69341 10.6738 6.62196C10.7795 6.55051 10.9 6.51024 11.0238 6.505C11.1476 6.49975 11.2706 6.52972 11.3809 6.59202L13.8566 8.00002L16.1187 9.28802Z" stroke="black" stroke-width="1.15" stroke-linecap="round" stroke-linejoin="round"/>
<path d="M20.6437 1H5.08022C2.88138 1 1.09888 2.96995 1.09888 5.4V14.6C1.09888 17.0301 2.88138 19 5.08022 19H20.6437C22.8425 19 24.625 17.0301 24.625 14.6V5.4C24.625 2.96995 22.8425 1 20.6437 1Z" stroke="black" stroke-width="1.15" stroke-linecap="round" stroke-linejoin="round"/>
</svg>
