<svg width="21" height="24" viewBox="0 0 21 24" fill="none" xmlns="http://www.w3.org/2000/svg">
<path d="M15.79 1H5.83666C3.09949 1 0.859985 3.475 0.859985 6.5V17.5C0.859985 20.525 3.09949 23 5.83666 23H15.79C18.5272 23 20.7667 20.525 20.7667 17.5V6.5C20.7667 3.475 18.5272 1 15.79 1ZM19.8619 17.5C19.8619 19.975 18.0295 22 15.79 22H5.83666C3.59716 22 1.76484 19.975 1.76484 17.5V6.5C1.76484 4.025 3.59716 2 5.83666 2H15.79C18.0295 2 19.8619 4.025 19.8619 6.5V17.5Z" fill="#141414" stroke="#141414" stroke-width="0.2"/>
<path d="M10.8072 6.5C8.07001 6.5 5.83051 8.975 5.83051 12C5.83051 15.025 8.07001 17.5 10.8072 17.5C13.5443 17.5 15.7839 15.025 15.7839 12C15.7839 8.975 13.5443 6.5 10.8072 6.5ZM10.8072 16.5C8.56768 16.5 6.73535 14.475 6.73535 12C6.73535 9.525 8.56768 7.5 10.8072 7.5C13.0467 7.5 14.879 9.525 14.879 12C14.879 14.475 13.0467 16.5 10.8072 16.5Z" fill="#141414" stroke="#141414" stroke-width="0.2"/>
<path d="M16.6893 3.75011C15.807 3.75011 15.1058 4.52511 15.1058 5.50011C15.1058 6.47511 15.807 7.25011 16.6893 7.25011C17.5715 7.25011 18.2728 6.47511 18.2728 5.50011C18.2728 4.52511 17.5715 3.75011 16.6893 3.75011ZM16.6893 6.25011C16.3047 6.25011 16.0106 5.92511 16.0106 5.50011C16.0106 5.07511 16.3047 4.75011 16.6893 4.75011C17.0738 4.75011 17.3679 5.07511 17.3679 5.50011C17.3679 5.92511 17.0738 6.25011 16.6893 6.25011Z" fill="#141414" stroke="#141414" stroke-width="0.2"/>
</svg>
